<mxfile host="app.diagrams.net" modified="2023-10-20T07:00:44.670Z" agent="Mozilla/5.0 (Macintosh; Intel Mac OS X 10_15_7) AppleWebKit/537.36 (KHTML, like Gecko) Chrome/118.0.0.0 Safari/537.36" version="22.0.5" etag="ayGj89lJK1moEw2T_VpE" type="github">
  <diagram name="Page-1" id="SvzZrYBlYYhq_vC4gZUT">
    <mxGraphModel>
      <root>
        <mxCell id="0" />
        <mxCell id="1" parent="0" />
      </root>
    </mxGraphModel>
  </diagram>
</mxfile>
